<mxfile host="app.diagrams.net" modified="2021-02-22T07:07:25.253Z" agent="5.0 (X11; Linux x86_64) AppleWebKit/537.36 (KHTML, like Gecko) Chrome/88.0.4324.182 Safari/537.36" etag="4M3AwPNKP-I853NlrtSg" version="14.4.2" type="github">
  <diagram id="Lb7Qr5d4vpATKv6VrhQ9" name="Page-1">
    <mxGraphModel dx="924" dy="544" grid="1" gridSize="10" guides="1" tooltips="1" connect="1" arrows="1" fold="1" page="1" pageScale="1" pageWidth="827" pageHeight="1169" math="0" shadow="0">
      <root>
        <mxCell id="0" />
        <mxCell id="1" parent="0" />
        <mxCell id="WaKimtVVQcEVHU75OgwG-1" value="Message dispatcher&lt;br&gt;消息派发器" style="ellipse;whiteSpace=wrap;html=1;aspect=fixed;" vertex="1" parent="1">
          <mxGeometry x="289" y="50" width="130" height="130" as="geometry" />
        </mxCell>
        <mxCell id="WaKimtVVQcEVHU75OgwG-2" value="Ｍinecraft消息源" style="rounded=0;whiteSpace=wrap;html=1;" vertex="1" parent="1">
          <mxGeometry x="50" y="500" width="120" height="60" as="geometry" />
        </mxCell>
        <mxCell id="WaKimtVVQcEVHU75OgwG-3" value="TencentQQ消息源" style="rounded=0;whiteSpace=wrap;html=1;" vertex="1" parent="1">
          <mxGeometry x="294" y="330" width="120" height="60" as="geometry" />
        </mxCell>
        <mxCell id="WaKimtVVQcEVHU75OgwG-4" value="其他消息源" style="rounded=0;whiteSpace=wrap;html=1;" vertex="1" parent="1">
          <mxGeometry x="530" y="500" width="120" height="60" as="geometry" />
        </mxCell>
        <mxCell id="WaKimtVVQcEVHU75OgwG-5" value="" style="endArrow=classic;startArrow=classic;html=1;exitX=0.5;exitY=0;exitDx=0;exitDy=0;entryX=0;entryY=1;entryDx=0;entryDy=0;" edge="1" parent="1" source="WaKimtVVQcEVHU75OgwG-2" target="WaKimtVVQcEVHU75OgwG-1">
          <mxGeometry width="50" height="50" relative="1" as="geometry">
            <mxPoint x="380" y="210" as="sourcePoint" />
            <mxPoint x="430" y="160" as="targetPoint" />
            <Array as="points" />
          </mxGeometry>
        </mxCell>
        <mxCell id="WaKimtVVQcEVHU75OgwG-6" value="通过网络(Websocket)通讯" style="edgeLabel;html=1;align=center;verticalAlign=middle;resizable=0;points=[];" vertex="1" connectable="0" parent="WaKimtVVQcEVHU75OgwG-5">
          <mxGeometry x="0.1672" relative="1" as="geometry">
            <mxPoint x="1" as="offset" />
          </mxGeometry>
        </mxCell>
        <mxCell id="WaKimtVVQcEVHU75OgwG-8" value="通过网络通讯" style="endArrow=classic;startArrow=classic;html=1;exitX=0.5;exitY=0;exitDx=0;exitDy=0;entryX=0.5;entryY=1;entryDx=0;entryDy=0;" edge="1" parent="1" source="WaKimtVVQcEVHU75OgwG-3" target="WaKimtVVQcEVHU75OgwG-1">
          <mxGeometry x="-0.0667" width="50" height="50" relative="1" as="geometry">
            <mxPoint x="380" y="210" as="sourcePoint" />
            <mxPoint x="430" y="160" as="targetPoint" />
            <mxPoint as="offset" />
          </mxGeometry>
        </mxCell>
        <mxCell id="WaKimtVVQcEVHU75OgwG-9" value="" style="endArrow=classic;startArrow=classic;html=1;exitX=0.567;exitY=0.033;exitDx=0;exitDy=0;exitPerimeter=0;entryX=1;entryY=1;entryDx=0;entryDy=0;" edge="1" parent="1" source="WaKimtVVQcEVHU75OgwG-4" target="WaKimtVVQcEVHU75OgwG-1">
          <mxGeometry width="50" height="50" relative="1" as="geometry">
            <mxPoint x="380" y="210" as="sourcePoint" />
            <mxPoint x="430" y="160" as="targetPoint" />
            <Array as="points" />
          </mxGeometry>
        </mxCell>
        <mxCell id="WaKimtVVQcEVHU75OgwG-10" value="&lt;span style=&quot;color: rgba(0 , 0 , 0 , 0) ; font-family: monospace ; font-size: 0px ; background-color: rgb(27 , 30 , 31)&quot;&gt;%3CmxGraphModel%3E%3Croot%3E%3CmxCell%20id%3D%220%22%2F%3E%3CmxCell%20id%3D%221%22%20parent%3D%220%22%2F%3E%3CmxCell%20id%3D%222%22%20value%3D%22%E9%80%9A%E8%BF%87%E7%BD%91%E7%BB%9C(Websocket)%E9%80%9A%E8%AE%AF%22%20style%3D%22edgeLabel%3Bhtml%3D1%3Balign%3Dcenter%3BverticalAlign%3Dmiddle%3Bresizable%3D0%3Bpoints%3D%5B%5D%3B%22%20vertex%3D%221%22%20connectable%3D%220%22%20parent%3D%221%22%3E%3CmxGeometry%20x%3D%22252.3823760266846%22%20y%3D%22211.88882317272078%22%20as%3D%22geometry%22%2F%3E%3C%2FmxCell%3E%3C%2Froot%3E%3C%2FmxGraphModel%3E&lt;/span&gt;" style="edgeLabel;html=1;align=center;verticalAlign=middle;resizable=0;points=[];" vertex="1" connectable="0" parent="WaKimtVVQcEVHU75OgwG-9">
          <mxGeometry x="0.1976" y="-4" relative="1" as="geometry">
            <mxPoint as="offset" />
          </mxGeometry>
        </mxCell>
        <mxCell id="WaKimtVVQcEVHU75OgwG-11" value="&lt;span style=&quot;font-family: helvetica; background-color: rgb(19, 21, 22);&quot;&gt;通过网络通讯&lt;/span&gt;" style="edgeLabel;html=1;align=center;verticalAlign=middle;resizable=0;points=[];noLabel=1;fontColor=none;" vertex="1" connectable="0" parent="WaKimtVVQcEVHU75OgwG-9">
          <mxGeometry x="0.0828" y="-3" relative="1" as="geometry">
            <mxPoint as="offset" />
          </mxGeometry>
        </mxCell>
        <mxCell id="WaKimtVVQcEVHU75OgwG-21" value="通过网络通讯" style="edgeLabel;html=1;align=center;verticalAlign=middle;resizable=0;points=[];fontColor=none;" vertex="1" connectable="0" parent="WaKimtVVQcEVHU75OgwG-9">
          <mxGeometry x="0.1393" y="3" relative="1" as="geometry">
            <mxPoint as="offset" />
          </mxGeometry>
        </mxCell>
        <mxCell id="WaKimtVVQcEVHU75OgwG-16" value="" style="endArrow=classic;startArrow=classic;html=1;exitX=1;exitY=0.5;exitDx=0;exitDy=0;entryX=0;entryY=0.5;entryDx=0;entryDy=0;rounded=1;shadow=0;dashed=1;sketch=0;" edge="1" parent="1" source="WaKimtVVQcEVHU75OgwG-2" target="WaKimtVVQcEVHU75OgwG-4">
          <mxGeometry width="50" height="50" relative="1" as="geometry">
            <mxPoint x="380" y="370" as="sourcePoint" />
            <mxPoint x="430" y="320" as="targetPoint" />
          </mxGeometry>
        </mxCell>
        <mxCell id="WaKimtVVQcEVHU75OgwG-20" value="信息交换" style="edgeLabel;html=1;align=center;verticalAlign=middle;resizable=0;points=[];" vertex="1" connectable="0" parent="WaKimtVVQcEVHU75OgwG-16">
          <mxGeometry x="0.0667" relative="1" as="geometry">
            <mxPoint as="offset" />
          </mxGeometry>
        </mxCell>
        <mxCell id="WaKimtVVQcEVHU75OgwG-17" value="" style="endArrow=classic;startArrow=classic;html=1;rounded=1;shadow=0;dashed=1;sketch=0;entryX=0.5;entryY=1;entryDx=0;entryDy=0;exitX=1;exitY=0.5;exitDx=0;exitDy=0;" edge="1" parent="1" source="WaKimtVVQcEVHU75OgwG-2" target="WaKimtVVQcEVHU75OgwG-3">
          <mxGeometry width="50" height="50" relative="1" as="geometry">
            <mxPoint x="140" y="497" as="sourcePoint" />
            <mxPoint x="320" y="420" as="targetPoint" />
            <Array as="points" />
          </mxGeometry>
        </mxCell>
        <mxCell id="WaKimtVVQcEVHU75OgwG-19" value="信息交换" style="edgeLabel;html=1;align=center;verticalAlign=middle;resizable=0;points=[];" vertex="1" connectable="0" parent="WaKimtVVQcEVHU75OgwG-17">
          <mxGeometry x="0.1573" y="-3" relative="1" as="geometry">
            <mxPoint as="offset" />
          </mxGeometry>
        </mxCell>
        <mxCell id="WaKimtVVQcEVHU75OgwG-18" value="信息交换" style="endArrow=classic;startArrow=classic;html=1;exitX=0.5;exitY=1;exitDx=0;exitDy=0;rounded=1;shadow=0;dashed=1;sketch=0;entryX=0;entryY=0.5;entryDx=0;entryDy=0;" edge="1" parent="1" source="WaKimtVVQcEVHU75OgwG-3" target="WaKimtVVQcEVHU75OgwG-4">
          <mxGeometry width="50" height="50" relative="1" as="geometry">
            <mxPoint x="210" y="550" as="sourcePoint" />
            <mxPoint x="500" y="450" as="targetPoint" />
            <Array as="points" />
          </mxGeometry>
        </mxCell>
      </root>
    </mxGraphModel>
  </diagram>
</mxfile>
